General
Complete name                            : Il Casanova Di Federico Fellini [1976] BRRip XviD - CODY.avi
Format                                   : AVI
Format/Info                              : Audio Video Interleave
File size                                : 1.29 GiB
Duration                                 : 2h 34mn
Overall bit rate                         : 1 202 Kbps
Writing application                      : VirtualDubMod 1.5.10.3 | www.virtualdub-fr.org || (build 2550/release)
Writing library                          : VirtualDubMod build 2550/release

Video
ID                                       : 0
Format                                   : MPEG-4 Visual
Format profile                           : Advanced Simple@L5
Format settings, BVOP                    : No
Format settings, QPel                    : No
Format settings, GMC                     : No warppoints
Format settings, Matrix                  : Default (H.263)
Codec ID                                 : XVID
Codec ID/Hint                            : XviD
Duration                                 : 2h 34mn
Bit rate                                 : 1 065 Kbps
Width                                    : 720 pixels
Height                                   : 392 pixels
Display aspect ratio                     : 16:9
Frame rate                               : 24.000 fps
Color space                              : YUV
Chroma subsampling                       : 4:2:0
Bit depth                                : 8 bits
Scan type                                : Progressive
Compression mode                         : Lossy
Bits/(Pixel*Frame)                       : 0.157
Stream size                              : 1.15 GiB (89%)
Writing library                          : XviD 65

Audio
ID                                       : 1
Format                                   : MPEG Audio
Format version                           : Version 1
Format profile                           : Layer 3
Codec ID                                 : 55
Codec ID/Hint                            : MP3
Duration                                 : 2h 34mn
Bit rate mode                            : Constant
Bit rate                                 : 128 Kbps
Channel(s)                               : 1 channel
Sampling rate                            : 48.0 KHz
Compression mode                         : Lossy
Stream size                              : 141 MiB (11%)
Alignment                                : Aligned on interleaves
Interleave, duration                     : 42 ms (1.00 video frame)
Interleave, preload duration             : 504 ms
Writing library                          : LAME3.99r
Encoding settings                        : -m m -V 4 -q 2 -lowpass 20.5 -b 128

Audio language                           : Italian [mostly], French, German
                                           English, Czech, Latin, Hungarian

IMDB link:                                 http://www.imdb.com/title/tt0074291/

Subtitles included                       : English[VobSub], Italian[Vobsub], 
                                           French[Vobsub], Romanian[.srt=default]

Please seed at least 1,5:1. This way this torrent has a chance to survive !

Thanks. Enjoy !		